<svg width="668" height="520" viewBox="0 0 668 520" fill="none" xmlns="http://www.w3.org/2000/svg">
<g clip-path="url(#clip0_2_18)">
<path d="M138.677 342.038C108.475 312.299 95.7195 281.275 102.758 254.68C111.791 220.551 151.921 196.954 212.857 189.939L213.082 191.897C152.994 198.814 113.477 221.881 104.663 255.184C97.8124 281.066 110.383 311.413 140.059 340.634L138.677 342.038Z" fill="#F0F0F0"/>
<path d="M430.069 447.599C392.376 447.599 351.415 441.997 310.73 431.223C260.417 417.9 214.286 397.791 177.323 373.068L178.418 371.43C215.203 396.033 261.13 416.051 311.234 429.318C356.513 441.309 402.131 446.864 443.141 445.398L443.212 447.366C438.881 447.522 434.5 447.6 430.069 447.599Z" fill="#F0F0F0"/>
<path d="M516.542 435.21L515.911 433.343C549.622 421.942 570.708 403.577 576.887 380.231C584.742 350.552 567.677 316.112 528.835 283.255C489.796 250.23 433.5 222.828 370.315 206.097L370.819 204.193C434.28 220.997 490.85 248.541 530.107 281.751C569.562 315.127 586.852 350.28 578.791 380.735C572.435 404.751 550.909 423.587 516.542 435.21Z" fill="#F0F0F0"/>
<path d="M206.993 448.423C132.928 415.566 75.8549 372.939 46.2888 328.392L47.9296 327.302C77.2913 371.541 134.064 413.915 207.791 446.622L206.993 448.423Z" fill="#F0F0F0"/>
<path d="M467.399 505.344C459.759 505.344 451.99 505.174 444.089 504.832L444.174 502.864C503.132 505.417 555.152 498.36 594.62 482.451L595.356 484.279C560.927 498.155 517.045 505.344 467.399 505.344Z" fill="#F0F0F0"/>
<path d="M424.425 191.706C412.184 187.719 399.592 184.007 387.001 180.673C314.54 161.486 243.311 154.673 181.011 160.976L180.813 159.015C243.345 152.692 314.818 159.521 387.505 178.768C400.132 182.112 412.759 185.835 425.035 189.833L424.425 191.706Z" fill="#F0F0F0"/>
<path d="M92.3878 344.993C62.1863 315.255 49.4307 284.23 56.4695 257.635C65.5026 223.507 105.632 199.909 166.568 192.894L166.793 194.852C106.705 201.769 67.1881 224.837 58.3738 258.139C51.5235 284.021 64.094 314.368 93.7698 343.589L92.3878 344.993Z" fill="#F0F0F0"/>
<path d="M383.781 450.555C346.087 450.555 305.127 444.952 264.442 434.178C214.129 420.855 167.997 400.746 131.035 376.023L132.129 374.386C168.914 398.989 214.841 419.006 264.946 432.273C310.224 444.264 355.843 449.82 396.852 448.354L396.923 450.322C392.592 450.478 388.211 450.555 383.781 450.555Z" fill="#F0F0F0"/>
<path d="M470.253 438.165L469.622 436.298C503.334 424.898 524.419 406.532 530.599 383.186C538.453 353.508 521.388 319.068 482.547 286.21C443.507 253.186 387.211 225.784 324.027 209.053L324.531 207.148C387.991 223.952 444.561 251.496 483.818 284.706C523.274 318.082 540.564 353.235 532.503 383.69C526.146 407.706 504.621 426.543 470.253 438.165Z" fill="#F0F0F0"/>
<path d="M160.704 451.378C86.6388 418.521 29.5661 375.894 0 331.348L1.64081 330.258C31.0026 374.496 87.7756 416.871 161.502 449.577L160.704 451.378Z" fill="#F0F0F0"/>
<path d="M421.11 508.299C413.471 508.299 405.701 508.129 397.801 507.788L397.885 505.819C456.843 508.373 508.863 501.315 548.331 485.406L549.068 487.234C514.639 501.11 470.757 508.299 421.11 508.299Z" fill="#F0F0F0"/>
<path d="M378.137 194.661C365.895 190.674 353.304 186.963 340.712 183.628C268.252 164.441 197.023 157.628 134.722 163.931L134.524 161.97C197.057 155.647 268.53 162.476 341.216 181.723C353.843 185.067 366.471 188.79 378.747 192.788L378.137 194.661Z" fill="#F0F0F0"/>
<path d="M33.573 292.222C47.7277 276.348 70.307 266.674 90.7688 272.465C71.8919 285.827 58.3486 305.437 52.535 327.825C50.3243 336.467 48.7651 346.31 41.5793 351.594C37.1083 354.882 31.184 355.668 25.6855 354.919C20.1867 354.17 14.9875 352.031 9.85845 349.912L8.47827 350.031C12.4464 329.134 19.4182 308.096 33.573 292.222Z" fill="#F2F2F2"/>
<path d="M90.7062 272.907C73.5987 277.05 58.2313 286.479 46.7867 299.856C44.2718 302.692 42.2195 305.907 40.7055 309.382C39.3399 312.815 38.9183 316.551 39.4845 320.202C39.9441 323.616 40.8095 327.056 40.4312 330.523C40.2112 332.295 39.6192 334 38.6941 335.527C37.769 337.054 36.5316 338.368 35.0631 339.383C31.4699 342.008 27.1482 343.184 22.882 344.188C18.1452 345.302 13.2075 346.385 9.34618 349.533C8.87833 349.915 8.31385 349.166 8.781 348.786C15.4989 343.307 24.8354 344.011 32.2682 340.032C35.7365 338.175 38.6663 335.261 39.3787 331.264C40.0016 327.768 39.1122 324.22 38.617 320.766C38.0125 317.213 38.287 313.565 39.4167 310.142C40.749 306.601 42.6741 303.313 45.1094 300.418C50.4881 293.813 56.8717 288.095 64.0262 283.473C72.1624 278.153 81.1485 274.265 90.5956 271.976C91.1804 271.834 91.2873 272.766 90.7063 272.907L90.7062 272.907Z" fill="white"/>
<path d="M50.2184 295.332C48.2353 293.107 47.1077 290.249 47.0368 287.268C46.9659 284.288 47.9563 281.38 49.8313 279.063C50.2123 278.595 50.9566 279.166 50.5751 279.634C48.8251 281.788 47.9027 284.497 47.9744 287.272C48.0461 290.047 49.1072 292.705 50.9661 294.767C51.3695 295.215 50.6195 295.778 50.2184 295.332H50.2184Z" fill="white"/>
<path d="M39.0236 318.501C45.1025 318.905 51.1103 317.002 55.8489 313.172C56.3181 312.792 56.8827 313.54 56.4141 313.92C51.4755 317.896 45.2195 319.864 38.8946 319.429C38.2918 319.388 38.4241 318.459 39.0236 318.501Z" fill="white"/>
<path d="M72.3731 279.378C72.961 280.399 73.7933 281.258 74.7951 281.878C75.7969 282.498 76.9369 282.859 78.1127 282.929C78.7157 282.963 78.5828 283.891 77.9836 283.857C76.6849 283.774 75.4264 283.374 74.318 282.691C73.2097 282.009 72.2852 281.066 71.6254 279.944C71.5544 279.843 71.5243 279.719 71.5412 279.597C71.5582 279.475 71.6209 279.365 71.7167 279.287C71.816 279.213 71.9407 279.181 72.0637 279.198C72.1866 279.215 72.2978 279.28 72.3731 279.378V279.378Z" fill="white"/>
<path d="M119.815 338.363C119.438 338.352 119.061 338.342 118.679 338.337C113.607 338.221 108.535 338.517 103.511 339.222C103.122 339.271 102.728 339.326 102.341 339.385C90.2562 341.214 78.6158 345.271 68.0117 351.349C63.7942 353.772 59.7672 356.512 55.9654 359.546C50.7153 363.737 45.356 368.698 39.2095 370.845C38.5707 371.077 37.9183 371.268 37.2559 371.419L8.73135 351.706C8.689 351.629 8.64186 351.558 8.59919 351.48L7.42432 350.745C7.60946 350.575 7.80515 350.402 7.99029 350.232C8.09728 350.133 8.21066 350.038 8.31761 349.939C8.39095 349.875 8.46464 349.81 8.52712 349.747C8.55146 349.726 8.57611 349.704 8.59596 349.689C8.65845 349.627 8.72313 349.575 8.78111 349.519C9.87227 348.552 10.9721 347.59 12.0807 346.635C12.0852 346.628 12.0852 346.628 12.096 346.626C20.5612 339.369 29.7066 332.754 39.5649 327.738C39.8616 327.587 40.1624 327.43 40.4721 327.288C44.9283 325.052 49.5598 323.183 54.3203 321.702C56.9296 320.899 59.5779 320.229 62.255 319.694C69.1748 318.325 76.2668 318.053 83.2711 318.888C97.2338 320.555 110.508 326.671 119.162 337.527C119.383 337.805 119.598 338.078 119.815 338.363Z" fill="#F2F2F2"/>
<path d="M119.501 338.681C103.347 331.686 85.4014 329.961 68.2119 333.749C64.4969 334.499 60.9233 335.83 57.6227 337.693C54.466 339.611 51.8806 342.34 50.1351 345.596C48.4466 348.6 47.0671 351.867 44.6781 354.407C43.436 355.69 41.9369 356.695 40.2791 357.357C38.6213 358.019 36.8424 358.323 35.0589 358.249C30.6102 358.181 26.4514 356.518 22.4409 354.75C17.9881 352.787 13.3941 350.678 8.41575 350.866C7.81256 350.889 7.81234 349.952 8.41463 349.929C17.076 349.6 24.1073 355.785 32.4371 357.084C36.3239 357.69 40.4169 357.128 43.392 354.365C45.9936 351.949 47.419 348.58 49.1024 345.525C50.7587 342.324 53.1735 339.577 56.1358 337.524C59.331 335.499 62.8474 334.033 66.5344 333.188C74.8048 331.153 83.3435 330.432 91.8379 331.05C101.536 331.702 111.052 334.009 119.973 337.871C120.525 338.11 120.049 338.918 119.501 338.681V338.681Z" fill="white"/>
<path d="M73.675 332.203C73.4311 329.232 74.2509 326.271 75.9881 323.849C77.7254 321.427 80.2668 319.701 83.1586 318.98C83.7443 318.836 83.9952 319.74 83.4088 319.884C80.7148 320.55 78.3476 322.158 76.7345 324.417C75.1214 326.676 74.3687 329.437 74.6122 332.202C74.6644 332.803 73.7269 332.801 73.675 332.203Z" fill="white"/>
<path d="M50.7908 343.961C55.4013 347.944 61.3435 350.043 67.4324 349.838C68.0356 349.818 68.036 350.755 67.4335 350.776C61.0969 350.977 54.9176 348.78 50.1288 344.624C49.6726 344.228 50.3371 343.567 50.7908 343.961V343.961Z" fill="white"/>
<path d="M100.967 332.807C100.822 333.977 100.97 335.163 101.396 336.262C101.823 337.36 102.516 338.335 103.413 339.099C103.874 339.489 103.209 340.15 102.751 339.762C101.764 338.914 101 337.836 100.526 336.624C100.052 335.412 99.8813 334.102 100.03 332.808C100.034 332.685 100.084 332.568 100.171 332.481C100.258 332.394 100.375 332.343 100.498 332.339C100.622 332.34 100.741 332.389 100.829 332.477C100.917 332.564 100.966 332.683 100.967 332.807H100.967Z" fill="white"/>
<path d="M588.206 422.35C580.209 402.641 562.194 385.939 540.977 384.514C554.266 403.445 560.432 426.467 558.384 449.507C557.562 458.39 555.724 468.184 560.716 475.577C563.822 480.177 569.138 482.908 574.568 484.051C579.998 485.194 585.614 484.928 591.157 484.656L592.416 485.233C595.701 464.217 596.204 442.06 588.206 422.35Z" fill="#F2F2F2"/>
<path d="M540.887 384.952C555.607 394.605 566.912 408.652 573.196 425.098C574.612 428.614 575.465 432.332 575.723 436.114C575.856 439.806 574.997 443.466 573.237 446.715C571.657 449.776 569.686 452.725 568.877 456.117C568.489 457.86 568.474 459.665 568.832 461.414C569.19 463.163 569.914 464.817 570.956 466.267C573.458 469.947 577.133 472.507 580.814 474.887C584.901 477.529 589.188 480.208 591.766 484.472C592.079 484.989 592.862 484.473 592.55 483.958C588.063 476.54 579.034 474.063 573.37 467.817C570.728 464.902 568.947 461.173 569.62 457.169C570.208 453.667 572.238 450.624 573.864 447.538C575.628 444.395 576.595 440.867 576.681 437.263C576.616 433.48 575.908 429.736 574.587 426.191C571.741 418.162 567.65 410.63 562.465 403.873C556.589 396.127 549.433 389.444 541.304 384.112C540.801 383.782 540.387 384.624 540.887 384.952V384.952Z" fill="white"/>
<path d="M571.484 419.683C574.1 418.254 576.122 415.941 577.19 413.158C578.259 410.375 578.303 407.303 577.316 404.491C577.114 403.922 576.221 404.209 576.423 404.778C577.348 407.396 577.306 410.257 576.306 412.847C575.306 415.436 573.414 417.583 570.97 418.899C570.44 419.186 570.957 419.968 571.484 419.683V419.683Z" fill="white"/>
<path d="M574.243 445.268C568.382 443.604 563.363 439.793 560.187 434.592C559.873 434.077 559.09 434.592 559.403 435.107C562.719 440.512 567.95 444.468 574.052 446.186C574.634 446.349 574.822 445.43 574.243 445.268V445.268Z" fill="white"/>
<path d="M555.979 397.21C555.083 397.974 554.01 398.503 552.858 398.75C551.707 398.997 550.512 398.953 549.381 398.624C548.801 398.454 548.614 399.373 549.19 399.542C550.441 399.9 551.761 399.946 553.034 399.676C554.307 399.406 555.495 398.829 556.494 397.994C556.594 397.923 556.664 397.816 556.689 397.696C556.714 397.575 556.692 397.45 556.628 397.344C556.56 397.241 556.453 397.169 556.331 397.144C556.21 397.118 556.083 397.142 555.979 397.21V397.21Z" fill="white"/>
<path d="M491.478 436.814C491.836 436.931 492.195 437.047 492.556 437.172C497.372 438.767 502.05 440.751 506.544 443.105C506.894 443.281 507.247 443.465 507.592 443.651C518.359 449.436 527.959 457.17 535.904 466.46C539.061 470.16 541.933 474.095 544.495 478.23C548.031 483.942 551.412 490.416 556.479 494.505C557.003 494.937 557.553 495.337 558.126 495.701L591.615 486.725C591.681 486.666 591.75 486.615 591.816 486.557L593.169 486.259C593.052 486.037 592.926 485.809 592.809 485.586C592.741 485.457 592.666 485.329 592.599 485.2C592.551 485.114 592.504 485.029 592.466 484.949C592.45 484.92 592.434 484.892 592.421 484.871C592.383 484.791 592.339 484.721 592.303 484.648C591.601 483.371 590.888 482.095 590.165 480.823C590.163 480.815 590.163 480.815 590.153 480.81C584.619 471.128 578.229 461.824 570.629 453.786C570.401 453.544 570.17 453.294 569.926 453.057C566.481 449.452 562.746 446.136 558.761 443.14C556.573 441.507 554.304 439.985 551.962 438.581C545.905 434.966 539.317 432.325 532.439 430.757C518.729 427.634 504.172 428.931 492.374 436.246C492.072 436.433 491.777 436.619 491.478 436.814Z" fill="#F2F2F2"/>
<path d="M491.667 437.219C509.231 436.062 526.712 440.47 541.629 449.816C544.876 451.771 547.794 454.226 550.277 457.09C552.605 459.959 554.123 463.398 554.673 467.051C555.254 470.448 555.456 473.989 556.852 477.185C557.591 478.81 558.665 480.26 560.004 481.441C561.343 482.622 562.916 483.507 564.621 484.037C568.834 485.468 573.309 485.299 577.681 484.983C582.534 484.631 587.57 484.189 592.195 486.04C592.755 486.265 593.07 485.382 592.511 485.158C584.464 481.937 575.763 485.397 567.482 483.82C563.617 483.085 559.951 481.179 558.078 477.577C556.439 474.427 556.229 470.775 555.67 467.331C555.186 463.759 553.834 460.36 551.734 457.431C549.405 454.45 546.586 451.887 543.398 449.852C536.292 445.155 528.492 441.605 520.284 439.332C510.931 436.686 501.194 435.659 491.495 436.297C490.894 436.337 491.071 437.258 491.667 437.219V437.219Z" fill="white"/>
<path d="M537.003 446.524C538.231 443.808 538.454 440.743 537.632 437.878C536.809 435.013 534.996 432.533 532.514 430.882C532.011 430.55 531.471 431.316 531.975 431.649C534.288 433.182 535.978 435.492 536.738 438.162C537.498 440.832 537.279 443.685 536.121 446.208C535.87 446.756 536.753 447.069 537.003 446.524H537.003Z" fill="white"/>
<path d="M554.605 465.291C548.925 467.492 542.623 467.471 536.957 465.232C536.396 465.009 536.08 465.892 536.641 466.114C542.541 468.434 549.099 468.442 555.006 466.138C555.569 465.918 555.165 465.072 554.605 465.291V465.291Z" fill="white"/>
<path d="M511.095 437.918C510.839 439.068 510.301 440.136 509.53 441.027C508.759 441.917 507.779 442.603 506.678 443.021C506.113 443.234 506.517 444.08 507.079 443.868C508.293 443.401 509.375 442.643 510.229 441.66C511.083 440.678 511.683 439.502 511.978 438.234C512.016 438.117 512.007 437.989 511.955 437.878C511.902 437.767 511.809 437.68 511.695 437.634C511.578 437.593 511.449 437.6 511.337 437.653C511.225 437.706 511.138 437.801 511.095 437.918V437.918Z" fill="white"/>
<path d="M433.053 489.463C437.404 489.463 440.932 485.934 440.932 481.582C440.932 477.23 437.404 473.701 433.053 473.701C428.702 473.701 425.174 477.23 425.174 481.582C425.174 485.934 428.702 489.463 433.053 489.463Z" fill="#FD6584"/>
<path d="M460.961 355.235C465.313 355.235 468.84 351.707 468.84 347.354C468.84 343.002 465.313 339.473 460.961 339.473C456.61 339.473 453.083 343.002 453.083 347.354C453.083 351.707 456.61 355.235 460.961 355.235Z" fill="#E6E6E6"/>
<path d="M314.354 136.637C318.705 136.637 322.232 133.108 322.232 128.756C322.232 124.403 318.705 120.875 314.354 120.875C310.002 120.875 306.475 124.403 306.475 128.756C306.475 133.108 310.002 136.637 314.354 136.637Z" fill="#E6E6E6"/>
<path d="M149.246 431.062C149.246 433.069 149.312 435.075 149.453 437.064C149.601 439.442 149.857 441.803 150.204 444.148C151.369 452.042 153.595 459.743 156.823 467.04C156.988 467.404 157.153 467.767 157.318 468.13L157.566 468.675C157.649 468.857 157.739 469.038 157.822 469.212C157.937 469.451 158.045 469.682 158.16 469.913C158.301 470.202 158.441 470.491 158.59 470.78C158.606 470.813 158.623 470.854 158.647 470.896C158.771 471.143 158.887 471.383 159.019 471.63C159.043 471.684 159.071 471.737 159.101 471.787C159.242 472.068 159.39 472.357 159.539 472.638C159.704 472.935 159.861 473.24 160.026 473.538C160.422 474.272 160.834 474.999 161.255 475.725C161.379 475.94 161.503 476.155 161.635 476.369C161.751 476.567 161.866 476.765 161.99 476.964C162.073 477.096 162.155 477.236 162.238 477.368C162.37 477.591 162.502 477.806 162.642 478.029C162.947 478.516 163.261 479.003 163.566 479.49H163.575C163.715 479.713 163.864 479.936 164.012 480.15V480.158C164.45 480.819 164.904 481.479 165.357 482.132C165.359 482.132 165.36 482.132 165.361 482.132C165.362 482.133 165.363 482.133 165.363 482.134C165.364 482.135 165.365 482.136 165.365 482.137C165.366 482.138 165.366 482.139 165.366 482.14C165.729 482.668 166.109 483.18 166.48 483.692V483.7C166.728 484.022 166.967 484.352 167.215 484.674C167.413 484.938 167.619 485.211 167.825 485.475C167.867 485.533 167.916 485.582 167.957 485.64V485.648C168.015 485.723 168.073 485.789 168.131 485.863C169.006 486.986 169.908 488.084 170.838 489.157L170.986 489.33C171.036 489.388 171.094 489.446 171.143 489.512C171.226 489.603 171.3 489.694 171.383 489.784C171.457 489.875 171.539 489.966 171.622 490.057C176.469 495.519 181.966 500.368 187.989 504.496C188.79 505.049 189.607 505.586 190.424 506.106C190.63 506.238 190.836 506.37 191.043 506.494C191.101 506.535 191.167 506.576 191.224 506.618C191.34 506.684 191.447 506.75 191.563 506.824C191.67 506.89 191.777 506.956 191.893 507.022C192.33 507.295 192.776 507.559 193.222 507.823C193.329 507.889 193.445 507.955 193.56 508.021C193.667 508.079 193.783 508.145 193.898 508.211C193.898 508.219 193.898 508.219 193.907 508.219H193.915V508.228H193.923C194.476 508.549 195.038 508.863 195.607 509.169C195.912 509.334 196.226 509.507 196.54 509.664C197.249 510.052 197.968 510.423 198.686 510.778C198.941 510.902 199.206 511.026 199.461 511.158C199.676 511.257 199.891 511.365 200.105 511.464C200.171 511.497 200.229 511.521 200.287 511.554C200.468 511.637 200.642 511.72 200.823 511.802C201.021 511.893 201.219 511.984 201.409 512.075C201.632 512.174 201.847 512.273 202.07 512.364C202.895 512.735 203.729 513.09 204.562 513.429C207.55 514.653 210.603 515.712 213.707 516.599C213.847 516.64 213.996 516.681 214.145 516.723C215.473 517.094 216.811 517.432 218.156 517.738C220.508 518.283 222.882 518.729 225.279 519.075H225.295C225.584 519.117 225.865 519.158 226.154 519.199C226.178 519.199 226.203 519.207 226.236 519.207C226.236 519.216 226.236 519.216 226.244 519.207C226.558 519.249 226.88 519.29 227.194 519.331C227.215 519.338 227.237 519.34 227.26 519.34C227.557 519.381 227.862 519.414 228.159 519.447C228.481 519.48 228.803 519.513 229.125 519.546C229.373 519.571 229.62 519.595 229.868 519.62C229.889 519.628 229.911 519.63 229.934 519.628C230.157 519.645 230.38 519.67 230.602 519.686H230.635C230.825 519.703 231.023 519.719 231.213 519.736C233.516 519.917 235.827 520 238.171 520C240.705 520 243.222 519.901 245.706 519.686H245.731C246.268 519.637 246.796 519.587 247.324 519.538C247.465 519.521 247.597 519.513 247.737 519.496C247.762 519.496 247.795 519.488 247.819 519.488C247.861 519.48 247.902 519.48 247.951 519.472C247.974 519.472 247.996 519.47 248.018 519.463C248.199 519.447 248.381 519.422 248.571 519.406L249.19 519.331C249.396 519.307 249.602 519.273 249.809 519.249C249.858 519.24 249.899 519.24 249.949 519.232C250.097 519.216 250.246 519.191 250.395 519.166C250.469 519.158 250.543 519.15 250.609 519.141C250.758 519.117 250.898 519.1 251.047 519.075H251.055C255.584 518.423 260.055 517.416 264.426 516.062C264.657 515.988 264.888 515.922 265.119 515.847C265.127 515.847 265.136 515.839 265.144 515.839C265.21 515.814 265.284 515.798 265.35 515.773C265.969 515.575 266.58 515.369 267.191 515.154C268.033 514.873 268.866 514.568 269.7 514.254C269.923 514.163 270.145 514.081 270.368 513.99C270.822 513.817 271.268 513.635 271.714 513.453C272.473 513.148 273.232 512.826 273.983 512.496C274.685 512.182 275.378 511.868 276.072 511.538C276.088 511.53 276.113 511.53 276.129 511.513C276.286 511.439 276.443 511.365 276.592 511.29H276.6C280.401 509.466 284.066 507.372 287.569 505.024C288.691 504.273 289.797 503.497 290.887 502.696C291.762 502.044 292.62 501.384 293.478 500.707C297.713 497.337 301.633 493.591 305.19 489.512V489.504C305.446 489.223 305.686 488.934 305.933 488.645C305.974 488.604 306.007 488.563 306.04 488.53C306.197 488.34 306.346 488.158 306.503 487.977V487.968C306.709 487.729 306.915 487.481 307.113 487.234C307.163 487.176 307.204 487.126 307.245 487.077V487.068C307.411 486.87 307.567 486.672 307.732 486.466C307.815 486.367 307.889 486.268 307.972 486.169V486.16C308.459 485.549 308.929 484.938 309.4 484.311C309.523 484.146 309.647 483.973 309.779 483.799C310.374 482.998 310.951 482.181 311.513 481.364V481.356C311.727 481.05 311.934 480.736 312.148 480.431C312.354 480.117 312.561 479.804 312.767 479.49C312.973 479.16 313.188 478.838 313.394 478.507L313.419 478.458C313.626 478.144 313.832 477.814 314.03 477.492C314.187 477.228 314.344 476.972 314.5 476.716C314.599 476.543 314.707 476.369 314.806 476.188C314.845 476.132 314.88 476.074 314.913 476.014C315.144 475.61 315.375 475.205 315.606 474.801C315.879 474.33 316.143 473.851 316.407 473.373C316.506 473.174 316.613 472.976 316.721 472.778C316.762 472.712 316.795 472.646 316.828 472.58C316.952 472.349 317.076 472.109 317.191 471.87C317.315 471.639 317.439 471.399 317.562 471.16C317.678 470.929 317.802 470.689 317.917 470.45C318.008 470.268 318.091 470.087 318.182 469.905C318.188 469.89 318.196 469.876 318.206 469.864C318.248 469.773 318.289 469.691 318.322 469.608C318.332 469.595 318.34 469.581 318.347 469.567C318.437 469.385 318.52 469.195 318.611 469.014C318.726 468.774 318.834 468.526 318.949 468.287C319.023 468.122 319.106 467.949 319.18 467.775C319.288 467.536 319.403 467.296 319.502 467.049C319.618 466.801 319.725 466.553 319.832 466.297C319.863 466.236 319.891 466.172 319.915 466.108C319.973 465.992 320.014 465.876 320.063 465.761C320.195 465.455 320.327 465.142 320.451 464.836C320.6 464.489 320.74 464.134 320.872 463.788C321.004 463.466 321.128 463.136 321.252 462.805L321.301 462.69C323.224 457.623 324.683 452.393 325.659 447.062V447.054C326.21 444.01 326.604 440.941 326.84 437.857C326.848 437.684 326.864 437.518 326.873 437.353C327.021 435.265 327.087 433.168 327.087 431.063C327.087 430.13 327.071 429.205 327.046 428.28C326.47 408.943 319.576 390.326 307.419 375.279C307.155 374.949 306.891 374.619 306.618 374.289C306.346 373.959 306.065 373.637 305.793 373.315C296.745 362.716 285.334 354.393 272.48 349.015C259.626 343.637 245.688 341.355 231.791 342.354C217.893 343.352 204.425 347.603 192.471 354.763C180.517 361.924 170.413 371.793 162.972 383.576C162.568 384.22 162.163 384.872 161.775 385.525C161.379 386.185 161 386.846 160.62 387.514C153.143 400.808 149.225 415.809 149.246 431.062Z" fill="#F2F2F2"/>
<path d="M234.637 372.888C249.259 376.641 264.243 378.804 279.329 379.34C281.61 379.465 283.897 379.449 286.176 379.294C291.185 378.872 295.476 377.298 300.254 376.437C302.551 376.024 305.11 375.723 307.423 375.277C306.889 374.614 306.345 373.959 305.791 373.312C300.804 373.733 295.74 375.113 290.693 375.754C282.114 376.845 272.501 375.627 265.998 372.624C262.842 371.167 260.425 369.348 257.281 367.885C256.853 367.665 256.39 367.523 255.913 367.465C255.006 367.438 254.111 367.671 253.332 368.135C248.056 370.799 240.398 372.964 233.289 371.773C232.759 372.187 233.765 372.66 234.637 372.888Z" fill="white"/>
<path d="M203.178 382.262C203.113 382.251 203.048 382.241 202.983 382.23C203.256 382.061 203.513 381.867 203.751 381.651L203.178 382.262Z" fill="white"/>
<path d="M160.622 387.518C163.591 387.755 166.576 387.932 169.576 388.048C171.857 388.171 174.144 388.156 176.423 388.001C181.432 387.578 185.723 386.005 190.501 385.145C194.881 384.357 200.203 383.978 202.983 382.23C195.797 380.986 188.351 383.519 180.94 384.461C174.946 385.199 168.869 384.899 162.977 383.574C162.156 384.865 161.371 386.18 160.622 387.518Z" fill="white"/>
<path d="M196.54 509.664C197.25 510.052 197.968 510.424 198.686 510.779C198.942 510.902 199.206 511.026 199.462 511.158C199.676 511.257 199.891 511.365 200.105 511.464C200.171 511.497 200.229 511.522 200.287 511.555C200.469 511.637 200.642 511.72 200.823 511.802C201.022 511.893 201.22 511.984 201.409 512.075C201.632 512.174 201.847 512.273 202.07 512.364C202.895 512.735 203.729 513.09 204.562 513.429C207.55 514.653 210.603 515.712 213.707 516.599C213.848 516.64 213.996 516.681 214.145 516.723C215.474 517.094 216.811 517.433 218.156 517.738C220.508 518.283 222.883 518.729 225.279 519.075H225.295C225.584 519.117 225.865 519.158 226.154 519.199C226.179 519.199 226.203 519.208 226.236 519.208C226.236 519.216 226.236 519.216 226.245 519.208C226.558 519.249 226.88 519.29 227.194 519.331C227.215 519.338 227.238 519.34 227.26 519.34C227.557 519.381 227.862 519.414 228.159 519.447C228.481 519.48 228.803 519.513 229.125 519.546C229.373 519.571 229.62 519.596 229.868 519.62C229.889 519.628 229.912 519.63 229.934 519.629C230.157 519.645 230.38 519.67 230.603 519.686H230.636C230.825 519.703 231.023 519.719 231.213 519.736C233.516 519.918 235.827 520 238.171 520C240.705 520 243.222 519.901 245.707 519.686H245.731C246.268 519.637 246.796 519.587 247.324 519.538C247.465 519.521 247.597 519.513 247.737 519.496C247.762 519.496 247.795 519.488 247.82 519.488C247.861 519.48 247.902 519.48 247.952 519.472C247.974 519.473 247.996 519.47 248.018 519.463C248.199 519.447 248.381 519.422 248.571 519.406L249.19 519.331C249.396 519.307 249.602 519.274 249.809 519.249C249.858 519.241 249.899 519.241 249.949 519.232C250.098 519.216 250.246 519.191 250.395 519.166C250.469 519.158 250.543 519.15 250.609 519.141C250.758 519.117 250.898 519.1 251.047 519.075H251.055C255.584 518.423 260.055 517.416 264.426 516.062C264.657 515.988 264.888 515.922 265.119 515.848C264.054 510.876 261.86 506.217 258.707 502.229C255.554 498.241 251.527 495.031 246.936 492.847C248.072 491.766 248.857 490.368 249.19 488.835C249.404 487.847 249.421 486.827 249.24 485.832C249.058 484.837 248.682 483.889 248.133 483.04C247.062 481.395 245.382 480.243 243.462 479.837L231.23 477.277C229.261 476.893 227.22 477.302 225.551 478.415C223.881 479.529 222.719 481.256 222.316 483.221C222.191 483.824 222.136 484.439 222.151 485.054C210.373 492.897 201.896 501.029 196.54 509.664Z" fill="#6C63FF"/>
<path d="M232.657 472.445C246.731 472.445 258.14 461.033 258.14 446.955C258.14 432.878 246.731 421.466 232.657 421.466C218.582 421.466 207.173 432.878 207.173 446.955C207.173 461.033 218.582 472.445 232.657 472.445Z" fill="#FFB8B8"/>
<path d="M216.772 468.931C214.055 467.075 211.28 463.507 209.427 460.833C206.972 457.318 205.283 453.326 204.469 449.116C203.655 444.906 203.734 440.572 204.702 436.395C205.011 434.725 205.769 433.171 206.896 431.9C208.096 430.712 210.056 430.149 211.521 430.989C211.122 429.918 210.945 428.776 211.004 427.635C211.062 426.493 211.354 425.376 211.861 424.351C212.891 422.306 214.383 420.529 216.218 419.16C219.729 416.456 223.907 414.753 228.308 414.232C232.708 413.711 237.168 414.391 241.213 416.201C242.805 416.938 240.19 411.24 241.857 411.79C243.512 412.431 245.352 412.398 246.983 411.7C248.551 410.911 253.745 415.598 253.144 413.95C254.333 414.49 255.366 415.322 256.147 416.369C256.928 417.416 257.432 418.644 257.61 419.938C257.789 421.232 257.638 422.55 257.17 423.77C256.703 424.99 255.934 426.071 254.936 426.914C253.621 428.024 251.979 428.664 250.539 429.607C248.016 431.382 246.23 434.02 245.518 437.023C244.807 440.025 245.219 443.184 246.677 445.904C245.162 444.93 243.499 444.207 241.754 443.764C240.878 443.55 239.964 443.548 239.088 443.759C238.211 443.97 237.398 444.387 236.715 444.976C236.145 445.629 235.714 446.392 235.449 447.217C235.184 448.043 235.09 448.914 235.174 449.777C235.231 451.507 235.643 453.211 235.689 454.941C235.824 460.018 238.543 469.669 234.608 472.367C231.502 474.497 220.483 471.467 216.772 468.931Z" fill="#2F2E41"/>
<path d="M250.179 319.373C249.642 319.372 249.111 319.264 248.616 319.057C247.877 318.76 247.245 318.247 246.803 317.585C246.36 316.923 246.128 316.142 246.137 315.346V311.311C246.136 310.465 245.799 309.653 245.201 309.055C244.603 308.457 243.792 308.12 242.945 308.119C241.881 308.118 240.86 307.694 240.107 306.941C239.353 306.188 238.93 305.166 238.929 304.101V248.826C238.93 247.761 239.353 246.739 240.106 245.986C240.859 245.233 241.88 244.809 242.945 244.808H426.032C427.097 244.809 428.118 245.233 428.871 245.986C429.624 246.739 430.048 247.761 430.049 248.826V304.101C430.048 305.166 429.624 306.188 428.871 306.941C428.118 307.694 427.097 308.118 426.032 308.119H264.381C263.961 308.118 263.546 308.2 263.159 308.36C262.771 308.521 262.42 308.756 262.124 309.054L252.994 318.186C252.626 318.56 252.188 318.858 251.705 319.062C251.222 319.266 250.703 319.371 250.179 319.373V319.373Z" fill="white"/>
<path d="M250.179 320.198C249.533 320.198 248.895 320.069 248.299 319.819C247.409 319.461 246.647 318.843 246.114 318.045C245.581 317.246 245.301 316.306 245.311 315.346V311.312C245.311 310.684 245.061 310.082 244.618 309.639C244.174 309.195 243.573 308.945 242.945 308.944C241.662 308.943 240.431 308.432 239.523 307.524C238.615 306.616 238.105 305.385 238.103 304.101V248.826C238.105 247.542 238.615 246.311 239.523 245.403C240.431 244.495 241.661 243.984 242.945 243.982H426.032C427.316 243.984 428.547 244.495 429.455 245.403C430.362 246.311 430.873 247.542 430.874 248.826V304.101C430.873 305.385 430.362 306.616 429.455 307.524C428.547 308.432 427.316 308.943 426.032 308.944H264.381C264.07 308.944 263.762 309.004 263.475 309.123C263.187 309.242 262.927 309.417 262.707 309.638L253.577 318.77C253.133 319.221 252.604 319.58 252.021 319.825C251.438 320.07 250.811 320.197 250.179 320.198V320.198ZM242.945 245.634C242.099 245.635 241.288 245.971 240.69 246.57C240.091 247.168 239.755 247.98 239.754 248.826V304.101C239.755 304.947 240.091 305.759 240.69 306.357C241.288 306.956 242.099 307.292 242.945 307.293C244.01 307.295 245.031 307.719 245.784 308.472C246.537 309.225 246.961 310.246 246.962 311.312V315.346C246.962 315.977 247.149 316.594 247.5 317.119C247.851 317.644 248.349 318.053 248.932 318.294C249.515 318.536 250.157 318.599 250.776 318.476C251.395 318.353 251.963 318.049 252.41 317.602L261.54 308.47C261.912 308.096 262.355 307.799 262.843 307.597C263.33 307.395 263.853 307.292 264.381 307.293H426.032C426.878 307.292 427.69 306.956 428.288 306.357C428.886 305.759 429.223 304.947 429.224 304.101V248.826C429.223 247.979 428.886 247.168 428.288 246.57C427.69 245.971 426.878 245.634 426.032 245.634L242.945 245.634Z" fill="#3F3D56"/>
<path d="M410.299 269.833H261.834C261.267 269.833 260.723 269.607 260.322 269.206C259.921 268.805 259.696 268.261 259.696 267.694C259.696 267.127 259.921 266.583 260.322 266.181C260.723 265.78 261.267 265.555 261.834 265.555H410.299C410.866 265.555 411.41 265.78 411.811 266.181C412.212 266.583 412.438 267.127 412.438 267.694C412.438 268.261 412.212 268.805 411.811 269.206C411.41 269.607 410.866 269.833 410.299 269.833Z" fill="#6C63FF"/>
<path d="M410.026 278.92H261.834C261.267 278.92 260.723 278.694 260.322 278.293C259.921 277.892 259.696 277.348 259.696 276.781C259.696 276.213 259.921 275.669 260.322 275.268C260.723 274.867 261.267 274.642 261.834 274.642H410.026C410.593 274.642 411.137 274.867 411.538 275.268C411.939 275.669 412.165 276.213 412.165 276.781C412.165 277.348 411.939 277.892 411.538 278.293C411.137 278.694 410.593 278.92 410.026 278.92V278.92Z" fill="#E6E6E6"/>
<path d="M409.879 288.006H261.834C261.267 288.006 260.723 287.781 260.322 287.38C259.921 286.978 259.696 286.434 259.696 285.867C259.696 285.3 259.921 284.756 260.322 284.355C260.723 283.954 261.267 283.728 261.834 283.728H409.879C410.446 283.728 410.99 283.954 411.391 284.355C411.792 284.756 412.017 285.3 412.017 285.867C412.017 286.434 411.792 286.978 411.391 287.38C410.99 287.781 410.446 288.006 409.879 288.006V288.006Z" fill="#E6E6E6"/>
<path d="M644.101 236.23C644.101 238.236 644.035 240.243 643.894 242.232C643.746 244.61 643.49 246.971 643.143 249.315C641.978 257.21 639.752 264.911 636.524 272.208C636.359 272.571 636.194 272.935 636.029 273.298L635.781 273.843C635.698 274.024 635.608 274.206 635.525 274.379C635.41 274.619 635.302 274.85 635.187 275.081C635.046 275.37 634.906 275.659 634.758 275.948C634.741 275.981 634.724 276.022 634.7 276.064C634.576 276.311 634.46 276.551 634.328 276.798C634.304 276.852 634.277 276.905 634.246 276.955C634.105 277.236 633.957 277.525 633.808 277.806C633.643 278.103 633.486 278.408 633.321 278.705C632.925 279.44 632.513 280.167 632.092 280.893C631.968 281.108 631.844 281.322 631.712 281.537C631.596 281.735 631.481 281.933 631.357 282.131C631.274 282.264 631.192 282.404 631.109 282.536C630.977 282.759 630.845 282.974 630.705 283.196C630.4 283.684 630.086 284.171 629.781 284.658H629.772C629.632 284.881 629.483 285.103 629.335 285.318V285.326C628.897 285.987 628.443 286.647 627.99 287.299C627.988 287.299 627.987 287.3 627.986 287.3C627.985 287.3 627.984 287.301 627.984 287.302C627.983 287.303 627.982 287.304 627.982 287.305C627.981 287.306 627.981 287.307 627.981 287.308C627.618 287.836 627.238 288.348 626.867 288.86V288.868C626.619 289.19 626.38 289.52 626.132 289.842C625.934 290.106 625.728 290.379 625.522 290.643C625.48 290.701 625.431 290.75 625.39 290.808V290.816C625.332 290.891 625.274 290.957 625.216 291.031C624.341 292.154 623.439 293.252 622.509 294.325L622.361 294.498C622.311 294.556 622.253 294.614 622.204 294.68C622.121 294.771 622.047 294.862 621.964 294.952C621.89 295.043 621.808 295.134 621.725 295.225C616.878 300.687 611.381 305.535 605.358 309.664C604.557 310.217 603.74 310.754 602.923 311.274C602.717 311.406 602.511 311.538 602.304 311.662C602.246 311.703 602.18 311.744 602.123 311.786C602.007 311.852 601.9 311.918 601.784 311.992C601.677 312.058 601.57 312.124 601.454 312.19C601.017 312.463 600.571 312.727 600.125 312.991C600.018 313.057 599.902 313.123 599.787 313.189C599.68 313.247 599.564 313.313 599.449 313.379C599.449 313.387 599.448 313.387 599.44 313.387H599.432V313.395H599.424C598.871 313.717 598.309 314.031 597.74 314.337C597.435 314.502 597.121 314.675 596.807 314.832C596.098 315.22 595.379 315.591 594.661 315.946C594.406 316.07 594.141 316.194 593.886 316.326C593.671 316.425 593.456 316.533 593.242 316.632C593.176 316.665 593.118 316.689 593.06 316.722C592.879 316.805 592.705 316.888 592.524 316.97C592.326 317.061 592.128 317.152 591.938 317.243C591.715 317.342 591.5 317.441 591.277 317.531C590.452 317.903 589.618 318.258 588.785 318.596C585.797 319.821 582.744 320.88 579.64 321.767C579.499 321.808 579.351 321.849 579.202 321.89C577.873 322.262 576.536 322.6 575.191 322.906C572.839 323.451 570.464 323.897 568.068 324.243H568.052C567.763 324.285 567.482 324.326 567.193 324.367C567.169 324.367 567.144 324.375 567.111 324.375C567.111 324.384 567.111 324.384 567.103 324.375C566.789 324.417 566.467 324.458 566.153 324.499C566.132 324.506 566.11 324.508 566.087 324.507C565.79 324.549 565.485 324.582 565.188 324.615C564.866 324.648 564.544 324.681 564.222 324.714C563.974 324.739 563.727 324.763 563.479 324.788C563.458 324.795 563.436 324.798 563.413 324.796C563.19 324.813 562.967 324.838 562.745 324.854H562.712C562.522 324.871 562.324 324.887 562.134 324.904C559.831 325.085 557.52 325.168 555.176 325.168C552.642 325.168 550.125 325.069 547.64 324.854H547.616C547.079 324.805 546.551 324.755 546.023 324.706C545.882 324.689 545.75 324.681 545.61 324.664C545.585 324.664 545.552 324.656 545.528 324.656C545.486 324.648 545.445 324.648 545.395 324.64C545.373 324.64 545.351 324.638 545.329 324.631C545.148 324.615 544.966 324.59 544.776 324.573L544.157 324.499C543.951 324.474 543.745 324.441 543.538 324.417C543.489 324.408 543.448 324.408 543.398 324.4C543.25 324.384 543.101 324.359 542.952 324.334C542.878 324.326 542.804 324.318 542.738 324.309C542.589 324.285 542.449 324.268 542.3 324.243H542.292C537.763 323.591 533.292 322.584 528.921 321.23C528.69 321.156 528.459 321.09 528.228 321.015C528.22 321.015 528.211 321.007 528.203 321.007C528.137 320.982 528.063 320.966 527.997 320.941C527.378 320.743 526.767 320.537 526.156 320.322C525.314 320.041 524.481 319.736 523.647 319.422C523.424 319.331 523.202 319.249 522.979 319.158C522.525 318.984 522.079 318.803 521.633 318.621C520.874 318.316 520.115 317.994 519.364 317.664C518.662 317.35 517.969 317.036 517.275 316.706C517.259 316.698 517.234 316.698 517.218 316.681C517.061 316.607 516.904 316.533 516.755 316.458H516.747C512.946 314.634 509.281 312.54 505.778 310.192C504.656 309.441 503.55 308.665 502.46 307.864C501.585 307.212 500.727 306.552 499.869 305.875C495.634 302.505 491.714 298.758 488.157 294.68V294.672C487.901 294.391 487.661 294.102 487.414 293.813C487.373 293.772 487.34 293.731 487.307 293.698C487.15 293.508 487.001 293.326 486.844 293.144V293.136C486.638 292.897 486.432 292.649 486.234 292.401C486.184 292.344 486.143 292.294 486.101 292.245V292.236C485.936 292.038 485.78 291.84 485.615 291.634C485.532 291.535 485.458 291.436 485.375 291.336V291.328C484.888 290.717 484.418 290.106 483.947 289.479C483.823 289.314 483.7 289.14 483.568 288.967C482.973 288.166 482.396 287.349 481.834 286.532V286.523C481.62 286.218 481.413 285.904 481.199 285.599C480.992 285.285 480.786 284.971 480.58 284.658C480.373 284.328 480.159 284.006 479.953 283.675L479.928 283.626C479.721 283.312 479.515 282.982 479.317 282.66C479.16 282.396 479.003 282.14 478.847 281.884C478.747 281.71 478.64 281.537 478.541 281.356C478.502 281.3 478.467 281.242 478.434 281.182C478.203 280.778 477.972 280.373 477.741 279.969C477.468 279.498 477.204 279.019 476.94 278.54C476.841 278.342 476.734 278.144 476.626 277.946C476.585 277.88 476.552 277.814 476.519 277.748C476.395 277.517 476.271 277.277 476.156 277.038C476.032 276.807 475.908 276.567 475.784 276.328C475.669 276.097 475.545 275.857 475.43 275.618C475.339 275.436 475.256 275.255 475.165 275.073C475.159 275.058 475.151 275.044 475.141 275.032C475.099 274.941 475.058 274.858 475.025 274.776C475.015 274.763 475.007 274.749 475 274.735C474.91 274.553 474.827 274.363 474.736 274.181C474.621 273.942 474.513 273.694 474.398 273.455C474.324 273.29 474.241 273.116 474.167 272.943C474.059 272.704 473.944 272.464 473.845 272.217C473.729 271.969 473.622 271.721 473.515 271.465C473.484 271.404 473.456 271.34 473.432 271.275C473.374 271.16 473.333 271.044 473.284 270.929C473.152 270.623 473.019 270.31 472.896 270.004C472.747 269.657 472.607 269.302 472.475 268.956C472.343 268.634 472.219 268.303 472.095 267.973L472.046 267.858C470.122 262.791 468.664 257.56 467.688 252.23V252.221C467.137 249.178 466.743 246.109 466.507 243.025C466.499 242.851 466.483 242.686 466.474 242.521C466.326 240.432 466.26 238.336 466.26 236.23C466.26 235.298 466.276 234.373 466.301 233.448C466.877 214.111 473.771 195.494 485.928 180.447C486.192 180.117 486.456 179.787 486.729 179.457C487.001 179.126 487.282 178.804 487.554 178.482C496.602 167.884 508.013 159.56 520.867 154.182C533.721 148.805 547.659 146.523 561.556 147.521C575.454 148.52 588.922 152.771 600.876 159.931C612.83 167.091 622.934 176.961 630.375 188.744C630.779 189.388 631.184 190.04 631.572 190.693C631.968 191.353 632.347 192.013 632.727 192.682C640.204 205.976 644.122 220.977 644.101 236.23V236.23Z" fill="#F2F2F2"/>
<path d="M558.71 178.056C544.088 181.809 529.104 183.972 514.018 184.508C511.737 184.632 509.45 184.617 507.171 184.462C502.162 184.04 497.871 182.465 493.093 181.605C490.795 181.192 488.237 180.891 485.924 180.445C486.458 179.782 487.002 179.127 487.556 178.48C492.543 178.901 497.607 180.281 502.654 180.922C511.233 182.013 520.846 180.795 527.349 177.792C530.505 176.335 532.922 174.516 536.066 173.052C536.494 172.833 536.957 172.691 537.434 172.633C538.341 172.606 539.236 172.838 540.015 173.303C545.291 175.967 552.95 178.132 560.059 176.941C560.588 177.355 559.582 177.828 558.71 178.056Z" fill="white"/>
<path d="M590.169 187.43C590.234 187.418 590.299 187.409 590.364 187.398C590.091 187.229 589.833 187.035 589.595 186.819L590.169 187.43Z" fill="white"/>
<path d="M632.725 192.686C629.756 192.923 626.771 193.1 623.771 193.216C621.49 193.339 619.203 193.323 616.924 193.169C611.915 192.746 607.624 191.173 602.846 190.312C598.466 189.525 593.144 189.146 590.364 187.398C597.55 186.154 604.996 188.687 612.407 189.629C618.401 190.367 624.478 190.067 630.37 188.742C631.191 190.033 631.976 191.348 632.725 192.686Z" fill="white"/>
<path d="M545.152 275.148C559.902 275.148 571.859 262.922 571.859 247.839C571.859 232.757 559.902 220.53 545.152 220.53C530.402 220.53 518.444 232.757 518.444 247.839C518.444 262.922 530.402 275.148 545.152 275.148Z" fill="#FFB6B6"/>
<path d="M596.807 314.832C596.098 315.22 595.38 315.591 594.661 315.946C594.406 316.07 594.141 316.194 593.886 316.326C593.671 316.425 593.456 316.533 593.242 316.632C593.176 316.665 593.118 316.689 593.06 316.722C592.879 316.805 592.705 316.888 592.524 316.97C592.326 317.061 592.128 317.152 591.938 317.243C591.715 317.342 591.5 317.441 591.277 317.532C590.452 317.903 589.618 318.258 588.785 318.596C585.797 319.821 582.744 320.88 579.64 321.767C579.5 321.808 579.351 321.849 579.202 321.89C577.874 322.262 576.536 322.6 575.191 322.906C572.839 323.451 570.465 323.897 568.068 324.243H568.052C567.763 324.285 567.482 324.326 567.193 324.367C567.169 324.367 567.144 324.375 567.111 324.375C567.111 324.384 567.111 324.384 567.103 324.375C566.789 324.417 566.467 324.458 566.153 324.499C566.132 324.506 566.11 324.508 566.087 324.508C565.79 324.549 565.485 324.582 565.188 324.615C564.866 324.648 564.544 324.681 564.222 324.714C563.974 324.739 563.727 324.763 563.479 324.788C563.458 324.795 563.436 324.798 563.413 324.796C563.19 324.813 562.968 324.838 562.745 324.854H562.712C562.522 324.871 562.324 324.887 562.134 324.904C559.831 325.085 557.52 325.168 555.176 325.168C552.642 325.168 550.125 325.069 547.641 324.854H547.616C547.079 324.805 546.551 324.755 546.023 324.706C545.883 324.689 545.75 324.681 545.61 324.664C545.585 324.664 545.552 324.656 545.528 324.656C545.486 324.648 545.445 324.648 545.396 324.64C545.373 324.64 545.351 324.638 545.33 324.631C545.148 324.615 544.966 324.59 544.777 324.574L544.158 324.499C543.951 324.474 543.745 324.441 543.538 324.417C543.489 324.408 543.448 324.408 543.398 324.4C543.25 324.384 543.101 324.359 542.952 324.334C542.878 324.326 542.804 324.318 542.738 324.309C542.589 324.285 542.449 324.268 542.3 324.243H542.292C537.763 323.591 533.292 322.584 528.921 321.23C528.69 321.156 528.459 321.09 528.228 321.015C529.294 316.044 531.488 311.385 534.64 307.397C537.793 303.408 541.82 300.199 546.411 298.015C545.275 296.933 544.49 295.536 544.158 294.003C543.943 293.015 543.926 291.994 544.108 291C544.289 290.005 544.665 289.056 545.214 288.208C546.285 286.563 547.965 285.41 549.886 285.004L562.117 282.445C564.086 282.061 566.127 282.47 567.797 283.583C569.466 284.696 570.628 286.424 571.031 288.389C571.156 288.992 571.211 289.607 571.196 290.222C582.974 298.065 591.451 306.197 596.807 314.832Z" fill="#6C63FF"/>
<path d="M616.618 235.995C612.078 230.7 609.92 223.674 606.291 217.661C602.662 211.648 596.346 206.266 589.674 207.666C585.075 208.631 581.521 212.69 579.721 217.216C577.922 221.741 577.585 226.732 577.27 231.622C577.381 221.574 570.763 211.833 561.646 208.627C552.529 205.42 541.619 208.997 535.89 217.069C533.39 214.752 530.127 213.432 526.719 213.36C523.311 213.289 519.996 214.47 517.401 216.681C512.277 221.262 511.143 229.981 514.911 235.824C518.68 241.667 526.841 243.843 532.829 240.603L534.947 242.551C533.755 246.72 536.066 251.645 539.951 253.214C543.101 254.487 547.549 254.275 548.728 257.582C549.551 259.892 548.012 262.359 546.374 264.134C544.736 265.91 542.791 267.743 542.595 270.2C542.298 273.907 546.128 276.504 549.609 277.286C558.004 279.172 567.319 275.284 572.158 267.873C572.251 267.73 572.353 267.587 572.462 267.444C575.177 263.971 577.155 259.982 578.276 255.719C579.398 251.455 579.638 247.008 578.983 242.649C578.711 240.937 578.985 239.663 580.166 239.257C585.268 237.504 599.565 241.183 603.892 244.509C608.219 247.835 611.684 252.236 615.851 255.776C620.019 259.317 625.33 262.047 630.622 261.083C634.86 260.311 638.466 257.233 640.891 253.521C643.316 249.809 644.712 245.482 645.962 241.181C636.59 246.597 623.764 244.33 616.618 235.995Z" fill="#2F2E41"/>
<path d="M68.3609 180.918C68.3609 182.924 68.427 184.93 68.5673 186.92C68.7158 189.297 68.9717 191.658 69.3184 194.003C70.4833 201.897 72.71 209.598 75.9377 216.896C76.1028 217.259 76.2679 217.622 76.433 217.985L76.6806 218.53C76.7631 218.712 76.8539 218.894 76.9364 219.067C77.052 219.306 77.1593 219.538 77.2748 219.769C77.4151 220.058 77.5554 220.347 77.704 220.636C77.7205 220.669 77.737 220.71 77.7618 220.751C77.8856 220.999 78.0012 221.238 78.1332 221.486C78.1575 221.54 78.185 221.592 78.2158 221.643C78.3561 221.923 78.5046 222.212 78.6532 222.493C78.8183 222.79 78.9751 223.096 79.1402 223.393C79.5363 224.128 79.949 224.854 80.3699 225.581C80.4937 225.795 80.6175 226.01 80.7496 226.225C80.8651 226.423 80.9807 226.621 81.1045 226.819C81.1871 226.951 81.2696 227.091 81.3521 227.223C81.4842 227.446 81.6162 227.661 81.7565 227.884C82.0619 228.371 82.3756 228.858 82.6809 229.345H82.6892C82.8295 229.568 82.9781 229.791 83.1266 230.006V230.014C83.5641 230.674 84.018 231.335 84.472 231.987C84.4731 231.987 84.4741 231.987 84.4752 231.988C84.4762 231.988 84.4771 231.989 84.4779 231.989C84.4787 231.99 84.4793 231.991 84.4797 231.992C84.4801 231.993 84.4803 231.994 84.4802 231.995C84.8434 232.524 85.2231 233.035 85.5945 233.547V233.555C85.8421 233.877 86.0814 234.208 86.3291 234.53C86.5271 234.794 86.7335 235.066 86.9398 235.33C86.9811 235.388 87.0306 235.438 87.0719 235.496V235.504C87.1296 235.578 87.1874 235.644 87.2452 235.718C88.1201 236.841 89.0225 237.939 89.9524 239.012L90.101 239.186C90.1505 239.244 90.2083 239.301 90.2578 239.367C90.3403 239.458 90.4146 239.549 90.4971 239.64C90.5714 239.731 90.6539 239.821 90.7365 239.912C95.5839 245.374 101.08 250.223 107.103 254.351C107.904 254.904 108.721 255.441 109.538 255.961C109.745 256.093 109.951 256.225 110.157 256.349C110.215 256.39 110.281 256.432 110.339 256.473C110.454 256.539 110.562 256.605 110.677 256.679C110.785 256.745 110.892 256.812 111.007 256.878C111.445 257.15 111.891 257.414 112.336 257.678C112.444 257.744 112.559 257.81 112.675 257.877C112.782 257.934 112.897 258 113.013 258.066C113.013 258.075 113.013 258.075 113.021 258.075H113.03V258.083H113.038C113.591 258.405 114.152 258.719 114.721 259.024C115.027 259.189 115.341 259.362 115.654 259.519C116.364 259.907 117.082 260.279 117.8 260.634C118.056 260.758 118.32 260.882 118.576 261.014C118.791 261.113 119.005 261.22 119.22 261.319C119.286 261.352 119.344 261.377 119.401 261.41C119.583 261.492 119.756 261.575 119.938 261.658C120.136 261.748 120.334 261.839 120.524 261.93C120.747 262.029 120.961 262.128 121.184 262.219C122.009 262.59 122.843 262.945 123.677 263.284C126.664 264.509 129.717 265.567 132.822 266.454C132.962 266.495 133.111 266.537 133.259 266.578C134.588 266.949 135.925 267.288 137.27 267.593C139.623 268.138 141.997 268.584 144.393 268.931H144.41C144.699 268.972 144.979 269.013 145.268 269.055C145.293 269.055 145.318 269.063 145.351 269.063C145.351 269.071 145.351 269.071 145.359 269.063C145.673 269.104 145.995 269.145 146.308 269.187C146.33 269.193 146.352 269.196 146.374 269.195C146.671 269.236 146.977 269.269 147.274 269.302C147.596 269.335 147.918 269.368 148.239 269.401C148.487 269.426 148.735 269.451 148.982 269.476C149.004 269.483 149.026 269.486 149.048 269.484C149.271 269.5 149.494 269.525 149.717 269.542H149.75C149.94 269.558 150.138 269.575 150.328 269.591C152.63 269.773 154.941 269.855 157.285 269.855C159.819 269.855 162.337 269.756 164.821 269.542H164.846C165.382 269.492 165.911 269.443 166.439 269.393C166.579 269.377 166.711 269.368 166.851 269.352C166.876 269.352 166.909 269.344 166.934 269.344C166.975 269.335 167.016 269.335 167.066 269.327C167.088 269.328 167.111 269.325 167.132 269.319C167.314 269.302 167.495 269.277 167.685 269.261L168.304 269.187C168.51 269.162 168.717 269.129 168.923 269.104C168.973 269.096 169.014 269.096 169.063 269.088C169.212 269.071 169.361 269.046 169.509 269.022C169.583 269.013 169.658 269.005 169.724 268.997C169.872 268.972 170.013 268.956 170.161 268.931H170.169C174.698 268.279 179.169 267.271 183.54 265.917C183.771 265.843 184.002 265.777 184.234 265.703C184.242 265.703 184.25 265.695 184.258 265.695C184.324 265.67 184.399 265.653 184.465 265.629C185.084 265.43 185.694 265.224 186.305 265.009C187.147 264.729 187.981 264.423 188.814 264.11C189.037 264.019 189.26 263.936 189.483 263.845C189.937 263.672 190.382 263.49 190.828 263.309C191.588 263.003 192.347 262.681 193.098 262.351C193.799 262.037 194.493 261.724 195.186 261.393C195.203 261.385 195.227 261.385 195.244 261.369C195.401 261.294 195.558 261.22 195.706 261.146H195.714C199.515 259.321 203.181 257.227 206.683 254.88C207.806 254.128 208.912 253.352 210.001 252.552C210.876 251.899 211.735 251.239 212.593 250.562C216.828 247.193 220.748 243.446 224.305 239.367V239.359C224.561 239.079 224.8 238.79 225.048 238.501C225.089 238.459 225.122 238.418 225.155 238.385C225.312 238.195 225.46 238.014 225.617 237.832V237.824C225.824 237.584 226.03 237.337 226.228 237.089C226.277 237.031 226.319 236.982 226.36 236.932V236.924C226.525 236.726 226.682 236.528 226.847 236.321C226.93 236.222 227.004 236.123 227.086 236.024V236.016C227.573 235.405 228.044 234.794 228.514 234.166C228.638 234.001 228.762 233.828 228.894 233.655C229.488 232.854 230.066 232.036 230.627 231.219V231.211C230.842 230.905 231.048 230.592 231.263 230.286C231.469 229.973 231.675 229.659 231.882 229.345C232.088 229.015 232.303 228.693 232.509 228.363L232.534 228.313C232.74 228 232.946 227.669 233.144 227.347C233.301 227.083 233.458 226.827 233.615 226.571C233.714 226.398 233.821 226.225 233.92 226.043C233.959 225.987 233.995 225.929 234.028 225.87C234.259 225.465 234.49 225.061 234.721 224.656C234.993 224.186 235.257 223.707 235.522 223.228C235.621 223.03 235.728 222.832 235.835 222.633C235.876 222.567 235.909 222.501 235.942 222.435C236.066 222.204 236.19 221.965 236.306 221.725C236.429 221.494 236.553 221.255 236.677 221.015C236.793 220.784 236.916 220.545 237.032 220.305C237.123 220.124 237.205 219.942 237.296 219.76C237.302 219.746 237.311 219.732 237.321 219.719C237.362 219.628 237.403 219.546 237.436 219.463C237.446 219.451 237.455 219.437 237.461 219.422C237.552 219.24 237.634 219.05 237.725 218.869C237.841 218.629 237.948 218.382 238.064 218.142C238.138 217.977 238.22 217.804 238.295 217.631C238.402 217.391 238.518 217.152 238.617 216.904C238.732 216.656 238.839 216.409 238.947 216.153C238.978 216.091 239.005 216.028 239.029 215.963C239.087 215.847 239.128 215.732 239.178 215.616C239.31 215.311 239.442 214.997 239.566 214.692C239.714 214.345 239.855 213.99 239.987 213.643C240.119 213.321 240.243 212.991 240.366 212.661L240.416 212.545C242.339 207.479 243.798 202.248 244.774 196.917V196.909C245.324 193.866 245.718 190.796 245.954 187.712C245.962 187.539 245.979 187.374 245.987 187.209C246.136 185.12 246.202 183.023 246.202 180.918C246.202 179.985 246.185 179.06 246.16 178.136C245.584 158.798 238.69 140.182 226.533 125.135C226.269 124.805 226.005 124.474 225.733 124.144C225.46 123.814 225.18 123.492 224.907 123.17C215.859 112.572 204.448 104.248 191.594 98.87C178.74 93.4921 164.803 91.2104 150.905 92.209C137.008 93.2075 123.539 97.4583 111.585 104.619C99.6317 111.779 89.5273 121.649 82.0867 133.432C81.6823 134.076 81.2779 134.728 80.89 135.38C80.4938 136.04 80.1141 136.701 79.7344 137.37C72.2572 150.664 68.3395 165.664 68.3609 180.918V180.918Z" fill="#F2F2F2"/>
<path d="M153.751 122.744C168.373 126.496 183.357 128.66 198.443 129.196C200.724 129.32 203.011 129.304 205.29 129.149C210.3 128.728 214.59 127.153 219.369 126.292C221.666 125.88 224.225 125.578 226.538 125.132C226.003 124.469 225.459 123.814 224.906 123.167C219.919 123.589 214.854 124.968 209.807 125.609C201.228 126.7 191.616 125.483 185.112 122.48C181.957 121.023 179.54 119.204 176.395 117.74C175.968 117.52 175.504 117.378 175.027 117.321C174.121 117.294 173.225 117.526 172.446 117.991C167.171 120.654 159.512 122.819 152.403 121.628C151.873 122.043 152.88 122.515 153.751 122.744Z" fill="white"/>
<path d="M122.293 132.118C122.228 132.106 122.163 132.097 122.098 132.085C122.371 131.916 122.628 131.722 122.866 131.506L122.293 132.118Z" fill="white"/>
<path d="M79.7363 137.373C82.7054 137.61 85.6901 137.787 88.6902 137.903C90.9715 138.026 93.2582 138.011 95.5376 137.857C100.547 137.433 104.837 135.861 109.616 135C113.995 134.213 119.317 133.833 122.098 132.086C114.911 130.841 107.465 133.374 100.054 134.317C94.0602 135.054 87.9837 134.754 82.0912 133.43C81.2708 134.72 80.4858 136.035 79.7363 137.373Z" fill="white"/>
<path d="M115.654 259.519C116.364 259.907 117.082 260.279 117.8 260.634C118.056 260.758 118.32 260.882 118.576 261.014C118.791 261.113 119.005 261.22 119.22 261.319C119.286 261.352 119.344 261.377 119.401 261.41C119.583 261.492 119.756 261.575 119.938 261.658C120.136 261.748 120.334 261.839 120.524 261.93C120.747 262.029 120.961 262.128 121.184 262.219C122.01 262.59 122.843 262.945 123.677 263.284C126.664 264.509 129.717 265.567 132.822 266.454C132.962 266.495 133.111 266.537 133.259 266.578C134.588 266.949 135.925 267.288 137.271 267.593C139.623 268.138 141.997 268.584 144.393 268.931H144.41C144.699 268.972 144.979 269.013 145.268 269.055C145.293 269.055 145.318 269.063 145.351 269.063C145.351 269.071 145.351 269.071 145.359 269.063C145.673 269.104 145.995 269.145 146.308 269.187C146.33 269.193 146.352 269.196 146.374 269.195C146.671 269.236 146.977 269.269 147.274 269.302C147.596 269.335 147.918 269.368 148.24 269.401C148.487 269.426 148.735 269.451 148.982 269.476C149.004 269.483 149.026 269.486 149.048 269.484C149.271 269.5 149.494 269.525 149.717 269.542H149.75C149.94 269.558 150.138 269.575 150.328 269.591C152.631 269.773 154.942 269.855 157.286 269.855C159.819 269.855 162.337 269.756 164.821 269.542H164.846C165.382 269.492 165.911 269.443 166.439 269.393C166.579 269.377 166.711 269.368 166.852 269.352C166.876 269.352 166.909 269.344 166.934 269.344C166.975 269.335 167.017 269.335 167.066 269.327C167.088 269.328 167.111 269.325 167.132 269.319C167.314 269.302 167.495 269.278 167.685 269.261L168.304 269.187C168.511 269.162 168.717 269.129 168.923 269.104C168.973 269.096 169.014 269.096 169.064 269.088C169.212 269.071 169.361 269.046 169.509 269.022C169.584 269.013 169.658 269.005 169.724 268.997C169.872 268.972 170.013 268.956 170.161 268.931H170.169C174.699 268.279 179.169 267.271 183.54 265.918C183.771 265.843 184.003 265.777 184.234 265.703C183.168 260.732 180.974 256.072 177.821 252.084C174.668 248.096 170.641 244.886 166.051 242.703C167.186 241.621 167.971 240.223 168.304 238.691C168.518 237.703 168.535 236.682 168.354 235.687C168.173 234.693 167.797 233.744 167.248 232.895C166.177 231.25 164.496 230.098 162.576 229.692L150.344 227.133C148.375 226.749 146.334 227.158 144.665 228.271C142.996 229.384 141.833 231.111 141.43 233.077C141.306 233.679 141.25 234.294 141.265 234.91C129.487 242.752 121.011 250.884 115.654 259.519Z" fill="#6C63FF"/>
<path d="M164.044 218.874C180.487 218.874 193.817 205.541 193.817 189.093C193.817 172.646 180.487 159.313 164.044 159.313C147.601 159.313 134.271 172.646 134.271 189.093C134.271 205.541 147.601 218.874 164.044 218.874Z" fill="#9E616A"/>
<path d="M159.813 217.282C152.359 219.296 144.142 216.619 138.325 211.541C132.508 206.463 128.869 199.267 126.773 191.835C125.237 186.391 124.509 180.349 126.932 175.239C129.355 170.128 135.877 166.68 140.908 169.262C137.804 165.645 139.355 159.662 142.98 156.568C146.605 153.474 151.582 152.587 156.323 152.102C163.203 151.398 170.31 151.319 176.857 153.549C183.404 155.778 189.353 160.653 191.402 167.26C193.495 168.234 195.851 168.487 198.103 167.979C200.355 167.47 202.374 166.229 203.845 164.45C204.225 166.493 203.92 168.605 202.979 170.458C202.037 172.311 200.512 173.802 198.638 174.701L208.669 171.448C210.394 175.1 207.371 179.621 203.505 180.79C199.64 181.96 195.467 180.682 191.799 178.992C188.13 177.302 184.575 175.166 180.591 174.507C176.606 173.848 171.926 175.128 170.083 178.723C169.118 180.605 169.067 182.81 168.507 184.85C167.946 186.89 166.527 189.006 164.418 189.173C163.086 189.278 161.781 188.568 160.453 188.713C159.637 188.874 158.887 189.269 158.292 189.85C157.698 190.431 157.286 191.172 157.106 191.984C156.776 193.612 156.771 195.291 157.094 196.921L159.642 216.402L159.813 217.282Z" fill="#2F2E41"/>
</g>
<defs>
<clipPath id="clip0_2_18">
<rect width="668" height="520" fill="white"/>
</clipPath>
</defs>
</svg>
